<svg width="84" height="80" viewBox="0 0 84 80" fill="none" xmlns="http://www.w3.org/2000/svg">
<path d="M39.1448 2.85316C40.0389 0.0809114 43.9611 0.0809135 44.8552 2.85316L52.4958 26.5447C52.8962 27.7863 54.0531 28.6267 55.3576 28.6239L80.2507 28.5695C83.1635 28.5631 84.3756 32.2934 82.0153 34.0004L61.8444 48.5881C60.7873 49.3526 60.3454 50.7125 60.7513 51.9523L68.4954 75.6103C69.4016 78.3786 66.2284 80.684 63.8756 78.9667L43.7687 64.2909C42.715 63.5218 41.285 63.5218 40.2313 64.2909L20.1244 78.9667C17.7716 80.684 14.5984 78.3786 15.5046 75.6103L23.2487 51.9523C23.6546 50.7125 23.2127 49.3526 22.1556 48.5881L1.98473 34.0004C-0.375556 32.2934 0.836487 28.5631 3.74933 28.5695L28.6424 28.6239C29.9469 28.6267 31.1038 27.7863 31.5042 26.5447L39.1448 2.85316Z" fill="#FFC400"/>
</svg>
